<?xml version="1.0" encoding="UTF-8" standalone="no"?>
<svg
   xmlns:dc="http://purl.org/dc/elements/1.1/"
   xmlns:cc="http://creativecommons.org/ns#"
   xmlns:rdf="http://www.w3.org/1999/02/22-rdf-syntax-ns#"
   xmlns:svg="http://www.w3.org/2000/svg"
   xmlns="http://www.w3.org/2000/svg"
   version="1.1"
   id="svg2"
   viewBox="0 0 512.00001 512.00001"
   height="512"
   width="512">
  <defs
     id="defs4" />
  <metadata
     id="metadata7">
    <rdf:RDF>
      <cc:Work
         rdf:about="">
        <dc:format>image/svg+xml</dc:format>
        <dc:type
           rdf:resource="http://purl.org/dc/dcmitype/StillImage" />
        <dc:title></dc:title>
      </cc:Work>
    </rdf:RDF>
  </metadata>
  <g
     transform="translate(0,-540.36216)"
     id="layer1">
    <g
       id="g4247">
      <g
         transform="translate(7.8289617e-8,4.0670728)"
         id="g4140">
        <g
           transform="matrix(0.75811515,0,0,-0.75811515,89.730899,1400.092)"
           id="g5806"
           style="fill:#729fcf;fill-opacity:1">
          <path
             id="path5808"
             d="m 313.25867,535.08592 0.28727,0.28773 0,-0.14876 127.7303,0 0,127.28265 c -30.5814,30.9799 -62.70934,63.02231 -90.20521,90.57838 -42.4677,-0.28016 -85.22421,-0.13897 -127.79479,-0.13897 l 0,-127.0595 c 29.68782,-30.9239 62.56131,-63.32902 89.98243,-90.80153 z"
             style="fill:#729fcf;fill-opacity:1;fill-rule:nonzero;stroke:none;stroke-width:0.34107348px;stroke-linecap:butt;stroke-linejoin:miter;stroke-opacity:1" />
          <path
             style="fill:#729fcf;fill-opacity:1;fill-rule:nonzero;stroke:none;stroke-width:0.34107348px;stroke-linecap:butt;stroke-linejoin:miter;stroke-opacity:1"
             d="m 125.37945,535.08592 -0.28727,0.28773 0,-0.14876 -127.7303017,0 0,127.28265 c 30.5813997,30.9799 62.7093397,63.02231 90.2052097,90.57838 42.467702,-0.28016 85.224212,-0.13897 127.794792,-0.13897 l 0,-127.0595 c -29.68782,-30.9239 -62.56131,-63.32902 -89.98243,-90.80153 z"
             id="path5810" />
        </g>
        <g
           id="g3355"
           transform="matrix(1.0734913,0,0,1.0734913,20.562898,15.744837)"
           style="fill:#729fcf;fill-opacity:1">
          <path
             style="fill:#729fcf;fill-opacity:1;fill-rule:nonzero;stroke:none;stroke-width:0.34107348px;stroke-linecap:butt;stroke-linejoin:miter;stroke-opacity:1"
             d="m 313.25867,535.08592 0.28727,0.28773 0,-0.14876 127.7303,0 0,127.28265 c -30.5814,30.9799 -62.70934,63.02231 -90.20521,90.57838 -42.4677,-0.28016 -85.22421,-0.13897 -127.79479,-0.13897 l 0,-127.0595 c 29.68782,-30.9239 62.56131,-63.32902 89.98243,-90.80153 z"
             id="path3357" />
          <path
             id="path3359"
             d="m 125.37945,535.08592 -0.28727,0.28773 0,-0.14876 -127.7303017,0 0,127.28265 c 30.5813997,30.9799 62.7093397,63.02231 90.2052097,90.57838 42.467702,-0.28016 85.224212,-0.13897 127.794792,-0.13897 l 0,-127.0595 c -29.68782,-30.9239 -62.56131,-63.32902 -89.98243,-90.80153 z"
             style="fill:#729fcf;fill-opacity:1;fill-rule:nonzero;stroke:none;stroke-width:0.34107348px;stroke-linecap:butt;stroke-linejoin:miter;stroke-opacity:1" />
        </g>
      </g>
    </g>
  </g>
</svg>
